<svg width="14" height="16" viewBox="0 0 14 16" fill="none" xmlns="http://www.w3.org/2000/svg">
<path d="M13.75 5.89323C13.7422 5.82433 13.7271 5.75646 13.705 5.69073V5.62323C13.6689 5.54612 13.6208 5.47523 13.5625 5.41323L9.0625 0.913232C9.0005 0.854895 8.92962 0.806793 8.8525 0.770732C8.83011 0.767552 8.80739 0.767552 8.785 0.770732C8.70881 0.727038 8.62467 0.698991 8.5375 0.688232H5.5C4.90326 0.688232 4.33097 0.925285 3.90901 1.34724C3.48705 1.7692 3.25 2.3415 3.25 2.93823V3.68823H2.5C1.90326 3.68823 1.33097 3.92529 0.90901 4.34724C0.487053 4.7692 0.25 5.3415 0.25 5.93823V13.4382C0.25 14.035 0.487053 14.6073 0.90901 15.0292C1.33097 15.4512 1.90326 15.6882 2.5 15.6882H8.5C9.09674 15.6882 9.66903 15.4512 10.091 15.0292C10.5129 14.6073 10.75 14.035 10.75 13.4382V12.6882H11.5C12.0967 12.6882 12.669 12.4512 13.091 12.0292C13.5129 11.6073 13.75 11.035 13.75 10.4382V5.93823C13.75 5.93823 13.75 5.93823 13.75 5.89323ZM9.25 3.24573L11.1925 5.18823H10C9.80109 5.18823 9.61032 5.10921 9.46967 4.96856C9.32902 4.82791 9.25 4.63714 9.25 4.43823V3.24573ZM9.25 13.4382C9.25 13.6371 9.17098 13.8279 9.03033 13.9686C8.88968 14.1092 8.69891 14.1882 8.5 14.1882H2.5C2.30109 14.1882 2.11032 14.1092 1.96967 13.9686C1.82902 13.8279 1.75 13.6371 1.75 13.4382V5.93823C1.75 5.73932 1.82902 5.54855 1.96967 5.4079C2.11032 5.26725 2.30109 5.18823 2.5 5.18823H3.25V10.4382C3.25 11.035 3.48705 11.6073 3.90901 12.0292C4.33097 12.4512 4.90326 12.6882 5.5 12.6882H9.25V13.4382ZM12.25 10.4382C12.25 10.6371 12.171 10.8279 12.0303 10.9686C11.8897 11.1092 11.6989 11.1882 11.5 11.1882H5.5C5.30109 11.1882 5.11032 11.1092 4.96967 10.9686C4.82902 10.8279 4.75 10.6371 4.75 10.4382V2.93823C4.75 2.73932 4.82902 2.54855 4.96967 2.4079C5.11032 2.26725 5.30109 2.18823 5.5 2.18823H7.75V4.43823C7.75 5.03497 7.98705 5.60727 8.40901 6.02922C8.83097 6.45118 9.40326 6.68823 10 6.68823H12.25V10.4382Z" fill="white"/>
</svg>
