<svg width="60" height="60" viewBox="0 0 60 60" fill="none" xmlns="http://www.w3.org/2000/svg">
<circle cx="30" cy="30" r="30" fill="url(#paint0_linear_201_91)"/>
<g clip-path="url(#clip0_201_91)">
<mask id="path-2-inside-1_201_91" fill="white">
<path d="M40.9687 16.4685L38.7187 15.1691C38.6332 15.1198 38.5362 15.0938 38.4375 15.0938C38.3388 15.0938 38.2418 15.1198 38.1562 15.1691L37.5937 15.4937C37.5082 15.5431 37.4372 15.6141 37.3879 15.6996C37.3385 15.7851 37.3125 15.8821 37.3125 15.9808V29.4375C37.3125 29.5867 37.3718 29.7298 37.4773 29.8352C37.5827 29.9407 37.7258 30 37.875 30C38.0242 30 38.1673 29.9407 38.2727 29.8352C38.3782 29.7298 38.4375 29.5867 38.4375 29.4375V23.5313H40.4062C40.5554 23.5313 40.6985 23.472 40.804 23.3665C40.9095 23.261 40.9687 23.1179 40.9687 22.9688C40.9687 22.8196 40.9095 22.6765 40.804 22.571C40.6985 22.4655 40.5554 22.4063 40.4062 22.4063H38.4375V16.3059L40.4062 17.4428C40.5354 17.5173 40.689 17.5376 40.8331 17.4989C40.9772 17.4603 41.1 17.3661 41.1746 17.2369C41.2492 17.1077 41.2694 16.9541 41.2308 16.8101C41.1922 16.666 41.0979 16.5431 40.9687 16.4685Z"/>
</mask>
<path d="M40.9687 16.4685L38.7187 15.1691C38.6332 15.1198 38.5362 15.0938 38.4375 15.0938C38.3388 15.0938 38.2418 15.1198 38.1562 15.1691L37.5937 15.4937C37.5082 15.5431 37.4372 15.6141 37.3879 15.6996C37.3385 15.7851 37.3125 15.8821 37.3125 15.9808V29.4375C37.3125 29.5867 37.3718 29.7298 37.4773 29.8352C37.5827 29.9407 37.7258 30 37.875 30C38.0242 30 38.1673 29.9407 38.2727 29.8352C38.3782 29.7298 38.4375 29.5867 38.4375 29.4375V23.5313H40.4062C40.5554 23.5313 40.6985 23.472 40.804 23.3665C40.9095 23.261 40.9687 23.1179 40.9687 22.9688C40.9687 22.8196 40.9095 22.6765 40.804 22.571C40.6985 22.4655 40.5554 22.4063 40.4062 22.4063H38.4375V16.3059L40.4062 17.4428C40.5354 17.5173 40.689 17.5376 40.8331 17.4989C40.9772 17.4603 41.1 17.3661 41.1746 17.2369C41.2492 17.1077 41.2694 16.9541 41.2308 16.8101C41.1922 16.666 41.0979 16.5431 40.9687 16.4685Z" fill="white"/>
<path d="M40.9687 16.4685L36.968 23.3963L36.9685 23.3966L40.9687 16.4685ZM38.7187 15.1691L42.7195 8.24137L42.7188 8.24092L38.7187 15.1691ZM38.4375 15.0938V7.09377V15.0938ZM38.1562 15.1691L42.1544 22.0984L42.1563 22.0973L38.1562 15.1691ZM37.5937 15.4937L33.5956 8.56444L33.5937 8.56549L37.5937 15.4937ZM37.3125 15.9808L29.3125 15.9806V15.9808H37.3125ZM38.4375 23.5313V15.5313H30.4375V23.5313H38.4375ZM38.4375 22.4063H30.4375V30.4063H38.4375V22.4063ZM38.4375 16.3059L42.4379 9.37797L30.4375 2.44859V16.3059H38.4375ZM40.4062 17.4428L36.4058 24.3707L36.4063 24.371L40.4062 17.4428ZM41.1746 17.2369L48.1027 21.2371L48.1029 21.2368L41.1746 17.2369ZM44.9695 9.54075L42.7195 8.24137L34.718 22.0969L36.968 23.3963L44.9695 9.54075ZM42.7188 8.24092C41.4171 7.48941 39.9405 7.09377 38.4375 7.09377V23.0938C37.1319 23.0938 35.8494 22.7501 34.7187 22.0973L42.7188 8.24092ZM38.4375 7.09377C36.9345 7.09377 35.4579 7.48941 34.1562 8.24092L42.1563 22.0973C41.0256 22.7501 39.7431 23.0938 38.4375 23.0938V7.09377ZM34.1581 8.23987L33.5956 8.56444L41.5919 22.4229L42.1544 22.0984L34.1581 8.23987ZM33.5937 8.56549C32.2921 9.31697 31.2112 10.3978 30.4597 11.6995L44.316 19.6997C43.6632 20.8303 42.7243 21.7691 41.5938 22.4219L33.5937 8.56549ZM30.4597 11.6995C29.7082 13.0011 29.3125 14.4777 29.3125 15.9806L45.3125 15.981C45.3125 17.2865 44.9688 18.569 44.316 19.6997L30.4597 11.6995ZM29.3125 15.9808V29.4375H45.3125V15.9808H29.3125ZM29.3125 29.4375C29.3125 31.7084 30.2146 33.8863 31.8204 35.4921L43.1341 24.1784C44.5289 25.5732 45.3125 27.465 45.3125 29.4375H29.3125ZM31.8204 35.4921C33.4262 37.0979 35.6041 38 37.875 38V22C39.8475 22 41.7393 22.7836 43.1341 24.1784L31.8204 35.4921ZM37.875 38C40.1459 38 42.3238 37.0979 43.9296 35.4921L32.6159 24.1784C34.0107 22.7836 35.9025 22 37.875 22V38ZM43.9296 35.4921C45.5354 33.8863 46.4375 31.7084 46.4375 29.4375H30.4375C30.4375 27.465 31.2211 25.5732 32.6159 24.1784L43.9296 35.4921ZM46.4375 29.4375V23.5313H30.4375V29.4375H46.4375ZM38.4375 31.5313H40.4062V15.5313H38.4375V31.5313ZM40.4062 31.5313C42.6771 31.5313 44.8551 30.6291 46.4609 29.0234L35.1471 17.7096C36.542 16.3148 38.4337 15.5313 40.4062 15.5313V31.5313ZM46.4609 29.0234C48.0666 27.4176 48.9688 25.2396 48.9688 22.9688H32.9687C32.9687 20.9962 33.7523 19.1045 35.1471 17.7096L46.4609 29.0234ZM48.9688 22.9688C48.9688 20.6979 48.0666 18.5199 46.4609 16.9141L35.1471 28.2279C33.7523 26.833 32.9687 24.9413 32.9687 22.9688H48.9688ZM46.4609 16.9141C44.8551 15.3084 42.6771 14.4063 40.4062 14.4063V30.4063C38.4337 30.4063 36.542 29.6227 35.1471 28.2279L46.4609 16.9141ZM40.4062 14.4063H38.4375V30.4063H40.4062V14.4063ZM46.4375 22.4063V16.3059H30.4375V22.4063H46.4375ZM34.4371 23.2339L36.4058 24.3707L44.4067 10.5148L42.4379 9.37797L34.4371 23.2339ZM36.4063 24.371C38.3729 25.5064 40.71 25.8141 42.9035 25.2264L38.7626 9.77151C40.6679 9.26102 42.6979 9.52828 44.4062 10.5145L36.4063 24.371ZM42.9035 25.2264C45.097 24.6387 46.9672 23.2037 48.1027 21.2371L34.2466 13.2366C35.2329 11.5284 36.8573 10.282 38.7626 9.77151L42.9035 25.2264ZM48.1029 21.2368C49.2383 19.2702 49.546 16.9331 48.9583 14.7396L33.5034 18.8805C32.9929 16.9752 33.2602 14.9452 34.2464 13.2369L48.1029 21.2368ZM48.9583 14.7396C48.3705 12.5461 46.9355 10.6759 44.969 9.54044L36.9685 23.3966C35.2603 22.4103 34.0139 20.7858 33.5034 18.8805L48.9583 14.7396Z" fill="white" mask="url(#path-2-inside-1_201_91)"/>
<mask id="path-4-inside-2_201_91" fill="white">
<path d="M45.4687 19.0661L42.6562 17.4427C42.5923 17.4052 42.5215 17.3807 42.448 17.3707C42.3745 17.3606 42.2997 17.3652 42.228 17.3842C42.1563 17.4032 42.089 17.4361 42.0301 17.4812C41.9712 17.5262 41.9217 17.5825 41.8846 17.6468C41.8475 17.711 41.8235 17.7819 41.814 17.8555C41.8044 17.9291 41.8095 18.0038 41.8289 18.0754C41.8484 18.147 41.8818 18.214 41.9272 18.2726C41.9727 18.3313 42.0293 18.3803 42.0937 18.417L42.9375 18.9041V27.1875C42.9375 27.3367 42.9968 27.4798 43.1022 27.5852C43.2077 27.6907 43.3508 27.75 43.5 27.75C43.6492 27.75 43.7923 27.6907 43.8977 27.5852C44.0032 27.4798 44.0625 27.3367 44.0625 27.1875V19.5538L44.9062 20.0404C45.0354 20.1138 45.1883 20.1332 45.3316 20.0942C45.475 20.0553 45.5971 19.9613 45.6714 19.8326C45.7457 19.704 45.766 19.5512 45.7281 19.4076C45.6901 19.264 45.5969 19.1412 45.4687 19.0661Z"/>
</mask>
<path d="M45.4687 19.0661L42.6562 17.4427C42.5923 17.4052 42.5215 17.3807 42.448 17.3707C42.3745 17.3606 42.2997 17.3652 42.228 17.3842C42.1563 17.4032 42.089 17.4361 42.0301 17.4812C41.9712 17.5262 41.9217 17.5825 41.8846 17.6468C41.8475 17.711 41.8235 17.7819 41.814 17.8555C41.8044 17.9291 41.8095 18.0038 41.8289 18.0754C41.8484 18.147 41.8818 18.214 41.9272 18.2726C41.9727 18.3313 42.0293 18.3803 42.0937 18.417L42.9375 18.9041V27.1875C42.9375 27.3367 42.9968 27.4798 43.1022 27.5852C43.2077 27.6907 43.3508 27.75 43.5 27.75C43.6492 27.75 43.7923 27.6907 43.8977 27.5852C44.0032 27.4798 44.0625 27.3367 44.0625 27.1875V19.5538L44.9062 20.0404C45.0354 20.1138 45.1883 20.1332 45.3316 20.0942C45.475 20.0553 45.5971 19.9613 45.6714 19.8326C45.7457 19.704 45.766 19.5512 45.7281 19.4076C45.6901 19.264 45.5969 19.1412 45.4687 19.0661Z" fill="white"/>
<path d="M45.4687 19.0661L49.5147 12.1647L49.4914 12.151L49.468 12.1375L45.4687 19.0661ZM42.6562 17.4427L38.6103 24.3442L38.6336 24.3579L38.657 24.3714L42.6562 17.4427ZM42.0937 18.417L46.0937 11.4887L46.0708 11.4755L46.0478 11.4625L42.0937 18.417ZM42.9375 18.9041H50.9375V14.2853L46.9374 11.9759L42.9375 18.9041ZM44.0625 19.5538L48.0589 12.6236L36.0625 5.70561V19.5538H44.0625ZM44.9062 20.0404L40.9098 26.9706L40.931 26.9828L40.9522 26.9949L44.9062 20.0404ZM49.468 12.1375L46.6555 10.5141L38.657 24.3714L41.4695 25.9948L49.468 12.1375ZM46.7022 10.5413C45.728 9.97018 44.6505 9.59742 43.5317 9.44444L41.3642 25.2969C40.3924 25.1641 39.4565 24.8403 38.6103 24.3442L46.7022 10.5413ZM43.5317 9.44444C42.4129 9.29147 41.2749 9.3613 40.1832 9.64994L44.2728 25.1185C43.3245 25.3692 42.336 25.4298 41.3642 25.2969L43.5317 9.44444ZM40.1832 9.64994C39.0915 9.93857 38.0676 10.4403 37.1706 11.1262L46.8896 23.8361C46.1104 24.4319 45.2211 24.8677 44.2728 25.1185L40.1832 9.64994ZM37.1706 11.1262C36.2737 11.8121 35.5211 12.6687 34.9565 13.6467L48.8128 21.6468C48.3223 22.4964 47.6687 23.2404 46.8896 23.8361L37.1706 11.1262ZM34.9565 13.6467C34.3918 14.6247 34.0262 15.7046 33.8807 16.8244L49.7472 18.8867C49.6208 19.8592 49.3033 20.7973 48.8128 21.6468L34.9565 13.6467ZM33.8807 16.8244C33.7351 17.9441 33.8125 19.0817 34.1084 20.1715L49.5494 15.9793C49.8064 16.9259 49.8736 17.914 49.7472 18.8867L33.8807 16.8244ZM34.1084 20.1715C34.4043 21.2613 34.9128 22.2818 35.6046 23.1742L48.2498 13.3711C48.8507 14.1463 49.2924 15.0327 49.5494 15.9793L34.1084 20.1715ZM35.6046 23.1742C36.2965 24.0666 37.158 24.8134 38.1397 25.3715L46.0478 11.4625C46.9005 11.9473 47.6488 12.596 48.2498 13.3711L35.6046 23.1742ZM38.0938 25.3453L38.9376 25.8324L46.9374 11.9759L46.0937 11.4887L38.0938 25.3453ZM34.9375 18.9041V27.1875H50.9375V18.9041H34.9375ZM34.9375 27.1875C34.9375 29.4584 35.8396 31.6363 37.4454 33.2421L48.7591 21.9284C50.1539 23.3232 50.9375 25.215 50.9375 27.1875H34.9375ZM37.4454 33.2421C39.0512 34.8479 41.2291 35.75 43.5 35.75V19.75C45.4725 19.75 47.3643 20.5336 48.7591 21.9284L37.4454 33.2421ZM43.5 35.75C45.7709 35.75 47.9488 34.8479 49.5546 33.2421L38.2409 21.9284C39.6357 20.5336 41.5275 19.75 43.5 19.75V35.75ZM49.5546 33.2421C51.1604 31.6363 52.0625 29.4584 52.0625 27.1875H36.0625C36.0625 25.215 36.8461 23.3232 38.2409 21.9284L49.5546 33.2421ZM52.0625 27.1875V19.5538H36.0625V27.1875H52.0625ZM40.066 26.4841L40.9098 26.9706L48.9027 13.1101L48.0589 12.6236L40.066 26.4841ZM40.9522 26.9949C42.9178 28.1125 45.2456 28.4072 47.4277 27.8148L43.2356 12.3737C45.131 11.8591 47.153 12.1151 48.8603 13.0858L40.9522 26.9949ZM47.4277 27.8148C49.6098 27.2223 51.469 25.7909 52.5996 23.8327L38.7432 15.8326C39.7253 14.1317 41.3402 12.8883 43.2356 12.3737L47.4277 27.8148ZM52.5996 23.8327C53.7301 21.8746 54.0403 19.5487 53.4623 17.3628L37.9938 21.4524C37.4918 19.5537 37.7612 17.5334 38.7432 15.8326L52.5996 23.8327ZM53.4623 17.3628C52.8844 15.1768 51.4653 13.3082 49.5147 12.1647L41.4228 25.9676C39.7285 24.9743 38.4958 23.3512 37.9938 21.4524L53.4623 17.3628Z" fill="white" mask="url(#path-4-inside-2_201_91)"/>
<path d="M35.3438 17.3438C35.1946 17.3438 35.0515 17.403 34.946 17.5085C34.8405 17.614 34.7812 17.7571 34.7812 17.9062V25.1108L32.4908 19.3851C32.4421 19.2639 32.3528 19.1634 32.2382 19.1008C32.1235 19.0383 31.9907 19.0176 31.8625 19.0423C31.7342 19.0669 31.6186 19.1355 31.5353 19.2361C31.4521 19.3367 31.4065 19.4632 31.4062 19.5938V26.9062C31.4062 27.0554 31.4655 27.1985 31.571 27.304C31.6765 27.4095 31.8196 27.4688 31.9688 27.4688C32.1179 27.4688 32.261 27.4095 32.3665 27.304C32.472 27.1985 32.5312 27.0554 32.5312 26.9062V22.5148L34.8217 28.2399C34.8704 28.3611 34.9597 28.4616 35.0743 28.5241C35.189 28.5867 35.3218 28.6074 35.45 28.5827C35.5783 28.5581 35.6939 28.4895 35.7772 28.3889C35.8604 28.2883 35.906 28.1618 35.9062 28.0312V17.9062C35.9062 17.7571 35.847 17.614 35.7415 17.5085C35.636 17.403 35.4929 17.3438 35.3438 17.3438Z" fill="white"/>
<path d="M47.1562 16.7728L39.2812 12.225C39.0247 12.0769 38.7337 11.9989 38.4375 11.9989C38.1413 11.9989 37.8503 12.0769 37.5938 12.225L29.7188 16.7717C29.4621 16.9199 29.2489 17.1331 29.1008 17.3898C28.9527 17.6466 28.8748 17.9378 28.875 18.2342V27.1408C28.8748 27.4372 28.9527 27.7284 29.1008 27.9852C29.2489 28.2419 29.4621 28.4551 29.7188 28.6033L37.5938 33.1506C37.8503 33.2987 38.1413 33.3766 38.4375 33.3766C38.7337 33.3766 39.0247 33.2987 39.2812 33.1506L47.1562 28.6033C47.4129 28.4551 47.6261 28.2419 47.7742 27.9852C47.9223 27.7284 48.0002 27.4372 48 27.1408V18.2342C48 17.938 47.922 17.647 47.7739 17.3905C47.6258 17.1339 47.4128 16.9209 47.1562 16.7728ZM46.875 27.1408C46.875 27.2395 46.849 27.3365 46.7996 27.4221C46.7503 27.5076 46.6793 27.5786 46.5938 27.6279L38.7188 32.1746C38.6332 32.224 38.5362 32.25 38.4375 32.25C38.3388 32.25 38.2418 32.224 38.1562 32.1746L30.2813 27.6279C30.1957 27.5786 30.1247 27.5076 30.0754 27.4221C30.026 27.3365 30 27.2395 30 27.1408V18.2342C30 18.1354 30.026 18.0385 30.0754 17.9529C30.1247 17.8674 30.1957 17.7964 30.2813 17.7471L38.1562 13.2004C38.2418 13.151 38.3388 13.125 38.4375 13.125C38.5362 13.125 38.6332 13.151 38.7188 13.2004L46.5938 17.7471C46.6793 17.7964 46.7503 17.8674 46.7996 17.9529C46.849 18.0385 46.875 18.1354 46.875 18.2342V27.1408Z" fill="white"/>
<path d="M22.125 27.75C20.1225 27.75 18.1649 28.3438 16.4998 29.4564C14.8348 30.5689 13.5371 32.1502 12.7707 34.0003C12.0044 35.8504 11.8039 37.8862 12.1945 39.8503C12.5852 41.8143 13.5495 43.6185 14.9655 45.0345C16.3815 46.4505 18.1856 47.4148 20.1497 47.8055C22.1138 48.1961 24.1496 47.9956 25.9997 47.2293C27.8498 46.4629 29.4311 45.1652 30.5436 43.5001C31.6562 41.8351 32.25 39.8775 32.25 37.875C32.2469 35.1906 31.1791 32.6171 29.281 30.719C27.3829 28.8209 24.8094 27.7531 22.125 27.75ZM22.125 46.875C20.345 46.875 18.6049 46.3472 17.1249 45.3582C15.6448 44.3693 14.4913 42.9637 13.8101 41.3192C13.1289 39.6746 12.9507 37.865 13.2979 36.1192C13.6452 34.3734 14.5024 32.7697 15.761 31.511C17.0197 30.2524 18.6234 29.3952 20.3692 29.0479C22.115 28.7007 23.9246 28.8789 25.5691 29.5601C27.2137 30.2413 28.6193 31.3948 29.6082 32.8749C30.5972 34.3549 31.125 36.095 31.125 37.875C31.1222 40.2611 30.173 42.5486 28.4858 44.2358C26.7986 45.9231 24.5111 46.8722 22.125 46.875Z" fill="white"/>
<path d="M24.3531 40.2774L22.125 41.0739L19.8969 40.2774C19.7907 40.2397 19.6755 40.2347 19.5664 40.2632C19.4573 40.2917 19.3593 40.3523 19.2851 40.4372C19.2108 40.5221 19.1639 40.6274 19.1502 40.7393C19.1365 40.8512 19.1568 40.9647 19.2084 41.0649L21.6272 45.7264C21.6746 45.8179 21.7463 45.8947 21.8344 45.9483C21.9225 46.0019 22.0236 46.0302 22.1267 46.0302C22.2298 46.0302 22.3309 46.0019 22.419 45.9483C22.5071 45.8947 22.5788 45.8179 22.6262 45.7264L25.0449 41.0649C25.0971 40.9644 25.1177 40.8504 25.104 40.738C25.0903 40.6255 25.0429 40.5198 24.9682 40.4347C24.8934 40.3496 24.7947 40.289 24.6849 40.261C24.5752 40.2329 24.4595 40.2387 24.3531 40.2774ZM22.125 44.2464L20.8661 41.8181L21.9349 42.2001C22.0571 42.2439 22.1907 42.2439 22.3129 42.2001L23.3816 41.8181L22.125 44.2464Z" fill="white"/>
<path d="M22.6245 30.0219C22.5771 29.9304 22.5054 29.8536 22.4173 29.8C22.3292 29.7464 22.2281 29.7181 22.125 29.7181C22.0219 29.7181 21.9208 29.7464 21.8327 29.8C21.7446 29.8536 21.6729 29.9304 21.6255 30.0219L17.688 37.6157C17.6513 37.6869 17.6302 37.7652 17.6261 37.8453C17.6221 37.9253 17.6352 38.0053 17.6646 38.0799C17.694 38.1544 17.739 38.2219 17.7966 38.2776C17.8542 38.3334 17.923 38.3762 17.9985 38.4032L21.936 39.8094C22.0582 39.8533 22.1918 39.8533 22.314 39.8094L26.2515 38.4032C26.327 38.3762 26.3958 38.3334 26.4534 38.2776C26.511 38.2219 26.556 38.1544 26.5854 38.0799C26.6148 38.0053 26.6279 37.9253 26.6239 37.8453C26.6198 37.7652 26.5987 37.6869 26.562 37.6157L22.6245 30.0219ZM21.5625 32.5875V36.075L19.3451 36.8625L21.5625 32.5875ZM22.125 38.6833L19.8598 37.875L22.125 37.0661L24.3902 37.875L22.125 38.6833ZM22.6875 36.075V32.5875L24.9049 36.8625L22.6875 36.075Z" fill="white"/>
<path d="M13.6875 27.1875H15.9375C16.0867 27.1875 16.2298 27.1282 16.3352 27.0227C16.4407 26.9173 16.5 26.7742 16.5 26.625V20.4375C16.5 19.6916 16.7963 18.9762 17.3238 18.4488C17.8512 17.9213 18.5666 17.625 19.3125 17.625H20.4375V18.75C20.4375 18.8533 20.4659 18.9547 20.5198 19.0429C20.5736 19.1312 20.6506 19.2029 20.7425 19.2502C20.8344 19.2975 20.9375 19.3185 21.0406 19.3111C21.1437 19.3036 21.2427 19.2679 21.3268 19.2079L25.2643 16.3954C25.3372 16.3433 25.3967 16.2746 25.4377 16.195C25.4787 16.1154 25.5001 16.0271 25.5001 15.9375C25.5001 15.8479 25.4787 15.7596 25.4377 15.68C25.3967 15.6004 25.3372 15.5317 25.2643 15.4796L21.3268 12.6671C21.2427 12.6071 21.1437 12.5714 21.0406 12.5639C20.9375 12.5565 20.8344 12.5775 20.7425 12.6248C20.6506 12.6721 20.5736 12.7438 20.5198 12.8321C20.4659 12.9203 20.4375 13.0217 20.4375 13.125V14.25H19.3125C17.6715 14.25 16.0977 14.9019 14.9373 16.0623C13.7769 17.2227 13.125 18.7965 13.125 20.4375V26.625C13.125 26.7742 13.1843 26.9173 13.2898 27.0227C13.3952 27.1282 13.5383 27.1875 13.6875 27.1875ZM14.25 20.4375C14.25 19.0948 14.7834 17.8072 15.7328 16.8578C16.6822 15.9084 17.9698 15.375 19.3125 15.375H21C21.1492 15.375 21.2923 15.3157 21.3977 15.2102C21.5032 15.1048 21.5625 14.9617 21.5625 14.8125V14.2191L23.9694 15.9375L21.5625 17.6582V17.0625C21.5625 16.9133 21.5032 16.7702 21.3977 16.6648C21.2923 16.5593 21.1492 16.5 21 16.5H19.3125C18.2682 16.5 17.2667 16.9148 16.5283 17.6533C15.7898 18.3917 15.375 19.3932 15.375 20.4375V26.0625H14.25V20.4375Z" fill="white"/>
<path d="M46.3125 33.375H44.0625C43.9133 33.375 43.7702 33.4343 43.6648 33.5398C43.5593 33.6452 43.5 33.7883 43.5 33.9375V40.125C43.5 40.8709 43.2037 41.5863 42.6762 42.1137C42.1488 42.6412 41.4334 42.9375 40.6875 42.9375H39.5625V41.8125C39.5625 41.7092 39.534 41.6078 39.4802 41.5196C39.4264 41.4313 39.3494 41.3596 39.2575 41.3123C39.1656 41.265 39.0625 41.244 38.9594 41.2514C38.8563 41.2589 38.7573 41.2946 38.6732 41.3546L34.7357 44.1671C34.6628 44.2192 34.6033 44.2879 34.5623 44.3675C34.5213 44.4471 34.4999 44.5354 34.4999 44.625C34.4999 44.7146 34.5213 44.8029 34.5623 44.8825C34.6033 44.9621 34.6628 45.0308 34.7357 45.0829L38.6732 47.8954C38.7573 47.9554 38.8563 47.9911 38.9594 47.9986C39.0625 48.006 39.1656 47.985 39.2575 47.9377C39.3494 47.8904 39.4264 47.8187 39.4802 47.7304C39.534 47.6422 39.5625 47.5408 39.5625 47.4375V46.3125H40.6875C42.3285 46.3125 43.9023 45.6606 45.0627 44.5002C46.2231 43.3398 46.875 41.766 46.875 40.125V33.9375C46.875 33.7883 46.8157 33.6452 46.7102 33.5398C46.6048 33.4343 46.4617 33.375 46.3125 33.375ZM45.75 40.125C45.75 41.4677 45.2166 42.7553 44.2672 43.7047C43.3178 44.6541 42.0302 45.1875 40.6875 45.1875H39C38.8508 45.1875 38.7077 45.2468 38.6023 45.3523C38.4968 45.4577 38.4375 45.6008 38.4375 45.75V46.3446L36.0306 44.625L38.4375 42.9043V43.5C38.4375 43.6492 38.4968 43.7923 38.6023 43.8977C38.7077 44.0032 38.8508 44.0625 39 44.0625H40.6875C41.7318 44.0625 42.7333 43.6477 43.4717 42.9092C44.2102 42.1708 44.625 41.1693 44.625 40.125V34.5H45.75V40.125Z" fill="white"/>
</g>
<defs>
<linearGradient id="paint0_linear_201_91" x1="2.66447" y1="-23.4246" x2="67.3037" y2="-16.3564" gradientUnits="userSpaceOnUse">
<stop stop-color="#276EA3"/>
<stop offset="0.5" stop-color="#0FB3C5"/>
<stop offset="1" stop-color="#0CC77D"/>
</linearGradient>
<clipPath id="clip0_201_91">
<rect width="36" height="36" fill="white" transform="translate(12 12)"/>
</clipPath>
</defs>
</svg>
