<svg width="60" height="60" viewBox="0 0 60 60" fill="none" xmlns="http://www.w3.org/2000/svg">
<circle cx="30" cy="30" r="30" fill="url(#paint0_linear_201_82)"/>
<mask id="path-2-inside-1_201_82" fill="white">
<path d="M24.9375 25.5C23.0462 25.5 21.1974 26.0608 19.6249 27.1116C18.0523 28.1623 16.8267 29.6558 16.1029 31.4031C15.3791 33.1504 15.1898 35.0731 15.5587 36.9281C15.9277 38.783 16.8385 40.4869 18.1758 41.8242C19.5131 43.1616 21.217 44.0723 23.072 44.4413C24.9269 44.8102 26.8496 44.6209 28.5969 43.8971C30.3442 43.1733 31.8377 41.9477 32.8884 40.3751C33.9392 38.8026 34.5 36.9538 34.5 35.0625C34.5 32.5264 33.4925 30.0941 31.6992 28.3008C29.9059 26.5075 27.4736 25.5 24.9375 25.5ZM24.9375 43.5C23.2687 43.5 21.6374 43.0052 20.2499 42.078C18.8623 41.1509 17.7809 39.8331 17.1423 38.2914C16.5037 36.7496 16.3366 35.0531 16.6621 33.4164C16.9877 31.7797 17.7913 30.2763 18.9713 29.0963C20.1513 27.9163 21.6547 27.1127 23.2914 26.7871C24.9281 26.4616 26.6246 26.6287 28.1664 27.2673C29.7081 27.9059 31.0259 28.9873 31.953 30.3749C32.8802 31.7624 33.375 33.3937 33.375 35.0625C33.375 37.3003 32.4861 39.4464 30.9037 41.0287C29.3214 42.6111 27.1753 43.5 24.9375 43.5Z"/>
</mask>
<path d="M24.9375 25.5C23.0462 25.5 21.1974 26.0608 19.6249 27.1116C18.0523 28.1623 16.8267 29.6558 16.1029 31.4031C15.3791 33.1504 15.1898 35.0731 15.5587 36.9281C15.9277 38.783 16.8385 40.4869 18.1758 41.8242C19.5131 43.1616 21.217 44.0723 23.072 44.4413C24.9269 44.8102 26.8496 44.6209 28.5969 43.8971C30.3442 43.1733 31.8377 41.9477 32.8884 40.3751C33.9392 38.8026 34.5 36.9538 34.5 35.0625C34.5 32.5264 33.4925 30.0941 31.6992 28.3008C29.9059 26.5075 27.4736 25.5 24.9375 25.5ZM24.9375 43.5C23.2687 43.5 21.6374 43.0052 20.2499 42.078C18.8623 41.1509 17.7809 39.8331 17.1423 38.2914C16.5037 36.7496 16.3366 35.0531 16.6621 33.4164C16.9877 31.7797 17.7913 30.2763 18.9713 29.0963C20.1513 27.9163 21.6547 27.1127 23.2914 26.7871C24.9281 26.4616 26.6246 26.6287 28.1664 27.2673C29.7081 27.9059 31.0259 28.9873 31.953 30.3749C32.8802 31.7624 33.375 33.3937 33.375 35.0625C33.375 37.3003 32.4861 39.4464 30.9037 41.0287C29.3214 42.6111 27.1753 43.5 24.9375 43.5Z" fill="white"/>
<path d="M24.9375 25.5V21.5V25.5ZM34.5 35.0625H38.5H34.5ZM24.9375 21.5C22.2551 21.5 19.6329 22.2954 17.4026 23.7857L21.8471 30.4375C22.7619 29.8262 23.8373 29.5 24.9375 29.5V21.5ZM17.4026 23.7857C15.1722 25.276 13.4339 27.3941 12.4074 29.8724L19.7984 32.9338C20.2194 31.9174 20.9324 31.0487 21.8471 30.4375L17.4026 23.7857ZM12.4074 29.8724C11.3809 32.3506 11.1123 35.0775 11.6356 37.7084L19.4819 36.1477C19.2673 35.0687 19.3774 33.9502 19.7984 32.9338L12.4074 29.8724ZM11.6356 37.7084C12.1589 40.3393 13.4506 42.7559 15.3474 44.6526L21.0042 38.9958C20.2263 38.2179 19.6965 37.2267 19.4819 36.1477L11.6356 37.7084ZM15.3474 44.6526C17.2441 46.5494 19.6607 47.8411 22.2916 48.3644L23.8523 40.5181C22.7733 40.3035 21.7822 39.7737 21.0042 38.9958L15.3474 44.6526ZM22.2916 48.3644C24.9225 48.8877 27.6494 48.6191 30.1277 47.5926L27.0662 40.2016C26.0498 40.6226 24.9313 40.7328 23.8523 40.5181L22.2916 48.3644ZM30.1277 47.5926C32.6059 46.5661 34.724 44.8278 36.2143 42.5974L29.5626 38.1529C28.9513 39.0676 28.0826 39.7806 27.0662 40.2016L30.1277 47.5926ZM36.2143 42.5974C37.7046 40.3671 38.5 37.7449 38.5 35.0625H30.5C30.5 36.1627 30.1738 37.2381 29.5626 38.1529L36.2143 42.5974ZM38.5 35.0625C38.5 31.4655 37.0711 28.0158 34.5276 25.4724L28.8708 31.1292C29.914 32.1724 30.5 33.5872 30.5 35.0625H38.5ZM34.5276 25.4724C31.9842 22.9289 28.5345 21.5 24.9375 21.5V29.5C26.4128 29.5 27.8276 30.086 28.8708 31.1292L34.5276 25.4724ZM24.9375 39.5C24.0598 39.5 23.2019 39.2397 22.4722 38.7521L18.0276 45.4039C20.0729 46.7706 22.4776 47.5 24.9375 47.5V39.5ZM22.4722 38.7521C21.7424 38.2646 21.1737 37.5715 20.8378 36.7607L13.4468 39.8221C14.3881 42.0948 15.9823 44.0373 18.0276 45.4039L22.4722 38.7521ZM20.8378 36.7607C20.5019 35.9498 20.414 35.0576 20.5853 34.1968L12.739 32.6361C12.2591 35.0487 12.5054 37.5495 13.4468 39.8221L20.8378 36.7607ZM20.5853 34.1968C20.7565 33.336 21.1791 32.5453 21.7997 31.9247L16.1429 26.2679C14.4034 28.0073 13.2189 30.2234 12.739 32.6361L20.5853 34.1968ZM21.7997 31.9247C22.4203 31.3041 23.211 30.8815 24.0718 30.7103L22.5111 22.864C20.0984 23.3439 17.8823 24.5284 16.1429 26.2679L21.7997 31.9247ZM24.0718 30.7103C24.9326 30.539 25.8248 30.6269 26.6357 30.9628L29.6971 23.5717C27.4245 22.6304 24.9237 22.3841 22.5111 22.864L24.0718 30.7103ZM26.6357 30.9628C27.4465 31.2986 28.1396 31.8674 28.6272 32.5972L35.2789 28.1526C33.9123 26.1073 31.9698 24.5131 29.6971 23.5717L26.6357 30.9628ZM28.6272 32.5972C29.1148 33.3269 29.375 34.1848 29.375 35.0625H37.375C37.375 32.6026 36.6456 30.1979 35.2789 28.1526L28.6272 32.5972ZM29.375 35.0625C29.375 36.2394 28.9075 37.3681 28.0753 38.2003L33.7321 43.8571C36.0646 41.5247 37.375 38.3611 37.375 35.0625H29.375ZM28.0753 38.2003C27.2431 39.0325 26.1144 39.5 24.9375 39.5V47.5C28.2361 47.5 31.3997 46.1896 33.7321 43.8571L28.0753 38.2003Z" fill="white" mask="url(#path-2-inside-1_201_82)"/>
<mask id="path-4-inside-2_201_82" fill="white">
<path d="M29.7188 31.9688L25.2188 29.3728C25.1332 29.3234 25.0362 29.2975 24.9375 29.2975C24.8388 29.2975 24.7418 29.3234 24.6563 29.3728L20.1563 31.9688C20.0708 32.0181 19.9999 32.089 19.9505 32.1744C19.9011 32.2598 19.8751 32.3567 19.875 32.4553V37.6556C19.8726 37.7566 19.8974 37.8564 19.9469 37.9445C19.9964 38.0326 20.0687 38.1058 20.1563 38.1563L24.6563 40.755C24.7418 40.8044 24.8388 40.8304 24.9375 40.8304C25.0362 40.8304 25.1332 40.8044 25.2188 40.755L29.7188 38.1563C29.8042 38.1069 29.8751 38.036 29.9245 37.9506C29.9739 37.8652 29.9999 37.7683 30 37.6697V32.4581C30.0004 32.359 29.9746 32.2615 29.9252 32.1756C29.8758 32.0897 29.8046 32.0183 29.7188 31.9688ZM24.9375 30.5063L28.3997 32.5059L24.9375 34.5L21.4753 32.5088L24.9375 30.5063ZM21 33.5353L24.375 35.4844V39.2813L21 37.3294V33.5353ZM25.5 39.2813V35.4844L28.875 33.5353V37.3294L25.5 39.2813Z"/>
</mask>
<path d="M29.7188 31.9688L25.2188 29.3728C25.1332 29.3234 25.0362 29.2975 24.9375 29.2975C24.8388 29.2975 24.7418 29.3234 24.6563 29.3728L20.1563 31.9688C20.0708 32.0181 19.9999 32.089 19.9505 32.1744C19.9011 32.2598 19.8751 32.3567 19.875 32.4553V37.6556C19.8726 37.7566 19.8974 37.8564 19.9469 37.9445C19.9964 38.0326 20.0687 38.1058 20.1563 38.1563L24.6563 40.755C24.7418 40.8044 24.8388 40.8304 24.9375 40.8304C25.0362 40.8304 25.1332 40.8044 25.2188 40.755L29.7188 38.1563C29.8042 38.1069 29.8751 38.036 29.9245 37.9506C29.9739 37.8652 29.9999 37.7683 30 37.6697V32.4581C30.0004 32.359 29.9746 32.2615 29.9252 32.1756C29.8758 32.0897 29.8046 32.0183 29.7188 31.9688ZM24.9375 30.5063L28.3997 32.5059L24.9375 34.5L21.4753 32.5088L24.9375 30.5063ZM21 33.5353L24.375 35.4844V39.2813L21 37.3294V33.5353ZM25.5 39.2813V35.4844L28.875 33.5353V37.3294L25.5 39.2813Z" fill="white"/>
<path d="M29.7188 31.9688L31.7187 28.5046L31.7175 28.5039L29.7188 31.9688ZM25.2188 29.3728L23.2188 32.8369L23.22 32.8376L25.2188 29.3728ZM24.6563 29.3728L26.655 32.8376L26.6563 32.8369L24.6563 29.3728ZM20.1563 31.9688L18.1575 28.5039L18.1563 28.5046L20.1563 31.9688ZM19.875 32.4553L15.875 32.4512V32.4553H19.875ZM19.875 37.6556L23.8739 37.7509L23.875 37.7033V37.6556H19.875ZM20.1563 38.1563L22.1566 34.6924L22.1551 34.6915L20.1563 38.1563ZM24.6563 40.755L22.6559 44.2189L22.6563 44.2191L24.6563 40.755ZM25.2188 40.755L27.2188 44.2191L27.2191 44.2189L25.2188 40.755ZM29.7188 38.1563L27.7188 34.6921L27.7184 34.6924L29.7188 38.1563ZM30 37.6697L34 37.6738V37.6697H30ZM30 32.4581L26 32.4422L26 32.4502V32.4581H30ZM24.9375 30.5063L26.9381 27.0425L24.9361 25.8862L22.9348 27.0437L24.9375 30.5063ZM28.3997 32.5059L30.3961 35.9721L36.4058 32.5108L30.4003 29.0422L28.3997 32.5059ZM24.9375 34.5L22.9433 37.9674L24.9389 39.1152L26.9339 37.9662L24.9375 34.5ZM21.4753 32.5088L19.4726 29.0462L13.4692 32.5185L19.4811 35.9762L21.4753 32.5088ZM21 33.5353L23.0004 30.0714L17 26.6062V33.5353H21ZM24.375 35.4844H28.375V33.1753L26.3754 32.0205L24.375 35.4844ZM24.375 39.2813L22.3725 42.7439L28.375 46.2154V39.2813H24.375ZM21 37.3294H17V39.6368L18.9975 40.792L21 37.3294ZM25.5 39.2813H21.5V46.2154L27.5026 42.7439L25.5 39.2813ZM25.5 35.4844L23.4996 32.0205L21.5 33.1753V35.4844H25.5ZM28.875 33.5353H32.875V26.6062L26.8746 30.0714L28.875 33.5353ZM28.875 37.3294L30.8776 40.792L32.875 39.6368V37.3294H28.875ZM31.7175 28.5039L27.2175 25.908L23.22 32.8376L27.72 35.4336L31.7175 28.5039ZM27.2188 25.9087C26.5252 25.5083 25.7384 25.2975 24.9375 25.2975V33.2975C24.3341 33.2975 23.7413 33.1386 23.2188 32.8369L27.2188 25.9087ZM24.9375 25.2975C24.1366 25.2975 23.3499 25.5083 22.6563 25.9087L26.6563 32.8369C26.1337 33.1386 25.5409 33.2975 24.9375 33.2975V25.2975ZM22.6575 25.908L18.1575 28.5039L22.155 35.4336L26.655 32.8376L22.6575 25.908ZM18.1563 28.5046C17.4634 28.9047 16.8878 29.4799 16.4874 30.1726L23.4136 34.1762C23.1119 34.6981 22.6783 35.1315 22.1563 35.4329L18.1563 28.5046ZM16.4874 30.1726C16.087 30.8653 15.8758 31.6511 15.875 32.4512L23.875 32.4594C23.8744 33.0622 23.7153 33.6543 23.4136 34.1762L16.4874 30.1726ZM15.875 32.4553V37.6556H23.875V32.4553H15.875ZM15.8761 37.5604C15.8566 38.3797 16.0582 39.1892 16.4596 39.9037L23.4343 35.9853C23.7367 36.5237 23.8886 37.1336 23.8739 37.7509L15.8761 37.5604ZM16.4596 39.9037C16.861 40.6183 17.4475 41.2115 18.1574 41.621L22.1551 34.6915C22.69 35.0001 23.1318 35.447 23.4343 35.9853L16.4596 39.9037ZM18.1559 41.6201L22.6559 44.2189L26.6566 37.2911L22.1566 34.6924L18.1559 41.6201ZM22.6563 44.2191C23.3498 44.6195 24.1366 44.8304 24.9375 44.8304V36.8304C25.5409 36.8304 26.1337 36.9892 26.6563 37.2909L22.6563 44.2191ZM24.9375 44.8304C25.7384 44.8304 26.5252 44.6195 27.2188 44.2191L23.2188 37.2909C23.7413 36.9892 24.3341 36.8304 24.9375 36.8304V44.8304ZM27.2191 44.2189L31.7191 41.6201L27.7184 34.6924L23.2184 37.2911L27.2191 44.2189ZM31.7188 41.6204C32.4117 41.2203 32.9872 40.6451 33.3876 39.9524L26.4614 35.9488C26.7631 35.427 27.1967 34.9936 27.7188 34.6921L31.7188 41.6204ZM33.3876 39.9524C33.788 39.2597 33.9992 38.4739 34 37.6738L26 37.6656C26.0006 37.0628 26.1598 36.4707 26.4614 35.9488L33.3876 39.9524ZM34 37.6697V32.4581H26V37.6697H34ZM34 32.474C34.0032 31.67 33.7939 30.8795 33.3933 30.1825L26.4572 34.1687C26.1553 33.6436 25.9976 33.048 26 32.4422L34 32.474ZM33.3933 30.1825C32.9927 29.4854 32.415 28.9066 31.7187 28.5046L27.7188 35.4329C27.1942 35.13 26.759 34.6939 26.4572 34.1687L33.3933 30.1825ZM22.9369 33.97L26.3991 35.9697L30.4003 29.0422L26.9381 27.0425L22.9369 33.97ZM26.4033 29.0397L22.9411 31.0338L26.9339 37.9662L30.3961 35.9721L26.4033 29.0397ZM26.9318 31.0326L23.4696 29.0413L19.4811 35.9762L22.9433 37.9674L26.9318 31.0326ZM23.478 35.9713L26.9402 33.9688L22.9348 27.0437L19.4726 29.0462L23.478 35.9713ZM18.9996 36.9992L22.3746 38.9483L26.3754 32.0205L23.0004 30.0714L18.9996 36.9992ZM20.375 35.4844V39.2813H28.375V35.4844H20.375ZM26.3776 35.8186L23.0026 33.8668L18.9975 40.792L22.3725 42.7439L26.3776 35.8186ZM25 37.3294V33.5353H17V37.3294H25ZM29.5 39.2813V35.4844H21.5V39.2813H29.5ZM27.5004 38.9483L30.8754 36.9992L26.8746 30.0714L23.4996 32.0205L27.5004 38.9483ZM24.875 33.5353V37.3294H32.875V33.5353H24.875ZM26.8725 33.8668L23.4975 35.8186L27.5026 42.7439L30.8776 40.792L26.8725 33.8668Z" fill="white" mask="url(#path-4-inside-2_201_82)"/>
<path d="M33.9375 16.5C28.5741 16.5 24.375 18.4688 24.375 21V23.8125C24.375 23.9617 24.4343 24.1048 24.5398 24.2102C24.6452 24.3157 24.7883 24.375 24.9375 24.375C25.0867 24.375 25.2298 24.3157 25.3352 24.2102C25.4407 24.1048 25.5 23.9617 25.5 23.8125V23.1487C27.0975 24.555 30.2419 25.5 33.9375 25.5C37.6331 25.5 40.7775 24.5606 42.375 23.1487V28.3744C42.375 29.5894 40.125 31.1194 35.8331 31.6931C35.6927 31.7131 35.5651 31.7853 35.4757 31.8954C35.3862 32.0054 35.3417 32.1452 35.3509 32.2867C35.3602 32.4282 35.4225 32.561 35.5255 32.6585C35.6285 32.756 35.7645 32.811 35.9062 32.8125H35.9794C38.9044 32.4244 41.1291 31.6031 42.375 30.5203V35.6559C42.375 36.9862 39.8269 38.5837 35.5659 38.9494C35.4168 38.9557 35.2762 39.0211 35.1752 39.131C35.0742 39.241 35.021 39.3866 35.0273 39.5358C35.0337 39.685 35.099 39.8255 35.209 39.9265C35.319 40.0275 35.4646 40.0807 35.6137 40.0744H35.6616C40.2769 39.6722 43.5 37.8581 43.5 35.6559V21C43.5 18.4688 39.3009 16.5 33.9375 16.5ZM33.9375 24.375C28.965 24.375 25.5 22.5975 25.5 21C25.5 19.4025 28.965 17.625 33.9375 17.625C38.91 17.625 42.375 19.4025 42.375 21C42.375 22.5975 38.91 24.375 33.9375 24.375Z" fill="white"/>
<defs>
<linearGradient id="paint0_linear_201_82" x1="2.66447" y1="-23.4246" x2="67.3037" y2="-16.3564" gradientUnits="userSpaceOnUse">
<stop stop-color="#276EA3"/>
<stop offset="0.5" stop-color="#0FB3C5"/>
<stop offset="1" stop-color="#0CC77D"/>
</linearGradient>
</defs>
</svg>
