<svg width="60" height="60" viewBox="0 0 60 60" fill="none" xmlns="http://www.w3.org/2000/svg">
<circle cx="30" cy="30" r="30" fill="url(#paint0_linear_201_64)"/>
<g clip-path="url(#clip0_201_64)">
<path d="M29.0508 33.5967L29.0508 33.5967C28.8958 33.7476 28.6874 33.8291 28.4679 33.8172C28.2511 33.8054 28.06 33.7056 27.9164 33.562C27.122 32.7676 26.6005 32.0222 26.3346 31.2214C26.0123 30.2564 25.2432 29.4872 24.2783 29.165L29.0508 33.5967ZM29.0508 33.5967L29.0555 33.592M29.0508 33.5967L29.0555 33.592M29.0555 33.592L33.5927 29.0548C33.5928 29.0548 33.5928 29.0547 33.5928 29.0547C33.8993 28.7483 33.899 28.2517 33.5928 27.9455C32.7681 27.1209 32.024 26.5999 31.2218 26.3336L31.0643 26.8082L31.2226 26.3339C30.2574 26.0117 29.4879 25.2423 29.1657 24.277L29.1657 24.2769M29.0555 33.592L29.1657 24.2769M13.9843 14.8681L13.9851 14.8673L14.8669 13.9871C14.8669 13.987 14.867 13.987 14.867 13.9869C15.5023 13.3517 16.3479 13.0006 17.2513 13.0006C18.1502 13.0006 18.9974 13.3517 19.6313 13.9855L27.5852 21.9394L13.9843 14.8681ZM13.9843 14.8681C13.3511 15.503 12.9999 16.3498 12.9999 17.2475C12.9999 18.1505 13.3508 18.998 13.9867 19.6323C13.9867 19.6324 13.9868 19.6324 13.9869 19.6325L21.9406 27.5862C22.7339 28.3794 23.4792 28.8991 24.2778 29.1649L13.9843 14.8681ZM29.1657 24.2769C28.8985 23.4772 28.3808 22.7335 27.5855 21.9398L29.1657 24.2769ZM31.3784 25.859L31.379 25.8592C32.2125 26.1366 33.0154 26.6629 33.9117 27.5593C34.4499 28.0974 34.438 28.9129 33.9436 29.4063L33.9432 29.4067L29.4059 33.944L29.4051 33.9447C29.1564 34.1945 28.8312 34.3195 28.501 34.3195C28.1683 34.3195 27.8389 34.1939 27.5878 33.9417L27.587 33.941C26.6626 33.0165 26.1355 32.2122 25.8584 31.3797C25.5866 30.5625 24.9368 29.9131 24.119 29.6399L24.1185 29.6397C23.285 29.3623 22.4821 28.836 21.5858 27.9396L13.6315 19.9854C12.9018 19.2556 12.5 18.2863 12.5 17.2535C12.5 16.2145 12.9019 15.2452 13.6316 14.5141C13.6317 14.514 13.6318 14.5139 13.6318 14.5139L14.5135 13.6322C15.9706 12.1751 18.5339 12.1815 19.9847 13.6322L27.9389 21.5865L27.9392 21.5868C28.8354 22.4814 29.3615 23.284 29.639 24.119L29.639 24.1191C29.9108 24.9364 30.5607 25.5857 31.3784 25.859Z" fill="white" stroke="white"/>
<path d="M41.956 39.3534L42.1024 39.4998H42.3095H43.322C43.9904 39.4998 44.5885 39.8697 44.8879 40.4672L47.4736 45.6372C47.4736 45.6372 47.4736 45.6372 47.4736 45.6372C47.5219 45.7337 47.5026 45.8497 47.4273 45.9245L47.4262 45.9256L45.9263 47.4255C45.877 47.4749 45.8132 47.4996 45.7489 47.4996C45.7108 47.4996 45.6736 47.4914 45.6365 47.4729C45.6365 47.4729 45.6365 47.4728 45.6365 47.4728L40.4662 44.8869L40.4658 44.8867C39.8692 44.589 39.4991 43.9899 39.4991 43.3227V42.3102V42.1031L39.3527 41.9567L30.5719 33.176C30.5719 33.176 30.5719 33.176 30.5719 33.176C30.4747 33.0787 30.4747 32.9198 30.5719 32.8226C30.6691 32.7254 30.8281 32.7254 30.9253 32.8226L39.925 41.8223C39.9729 41.8702 39.999 41.9338 39.999 41.9997V43.3227C39.999 43.7986 40.265 44.2282 40.6894 44.4403C40.6894 44.4404 40.6894 44.4404 40.6895 44.4404L45.3767 46.7848L45.6991 46.946L45.9539 46.6911L46.6889 45.9562L46.9438 45.7013L46.7825 45.379L44.4397 40.6948C44.4394 40.6942 44.4391 40.6936 44.4388 40.693C44.2279 40.2653 43.7972 39.9998 43.3219 39.9998H41.999C41.9331 39.9998 41.8688 39.9736 41.8204 39.9261C41.8202 39.9259 41.8199 39.9256 41.8197 39.9254L32.8218 30.9275C32.7246 30.8303 32.7246 30.6714 32.8218 30.5741C32.9191 30.4769 33.078 30.4769 33.1752 30.5741L33.1753 30.5742L41.956 39.3534Z" fill="white" stroke="white"/>
<path d="M47.9853 19.0475C47.9703 18.7895 47.7933 18.542 47.5653 18.4175C47.3313 18.29 47.0493 18.2945 46.8198 18.4325L42.716 20.8939C41.4695 20.2489 40.655 19.0385 40.5186 17.6615L45.1024 14.9121C45.3125 14.7861 45.4475 14.5656 45.4655 14.3212C45.482 14.0767 45.3785 13.8397 45.1879 13.6852C43.8485 12.6037 42.26 12.0217 40.592 12.0007C38.7606 11.9857 36.8032 12.8377 35.3707 14.3646C33.6968 16.148 32.9228 17.9165 33.0023 19.7674C33.0459 20.7829 32.5914 21.8449 31.7544 22.6819L29.596 24.8403C29.3035 25.1343 29.3035 25.6083 29.596 25.9008C30.0069 26.3118 30.5139 26.6253 31.0629 26.8083C31.7634 27.0408 32.4429 27.5043 33.2378 28.2992C33.3323 28.3937 33.3323 28.6067 33.2378 28.7012L32.0934 29.8456C31.8009 30.1381 31.8009 30.6136 32.0934 30.9061L32.8434 31.6561C32.9904 31.8016 33.1823 31.8751 33.3744 31.8751C33.5664 31.8751 33.7583 31.8017 33.9053 31.6546L38.7862 26.7738C39.3937 26.9283 39.9472 27.0003 40.4992 27.0003C42.5556 27.0003 44.5445 26.1423 45.956 24.6438C47.3883 23.1258 48.1083 21.1384 47.9853 19.0475ZM44.8654 23.6163C43.7194 24.8313 42.1685 25.5003 40.4991 25.5003C39.9681 25.5003 39.4236 25.4103 38.7816 25.2153C38.5147 25.1343 38.2296 25.2078 38.0346 25.4028L34.8128 28.6247C34.8457 28.1222 34.6657 27.6047 34.2668 27.2058C33.3339 26.2728 32.4669 25.6938 31.5369 25.3848C31.4483 25.3563 31.3628 25.3218 31.2789 25.2813L32.8178 23.7409C33.9518 22.6084 34.5668 21.1355 34.5038 19.7015C34.4408 18.2556 35.0648 16.8846 36.4672 15.3892C37.6102 14.1697 39.1581 13.4618 40.5726 13.5007C41.537 13.5127 42.4715 13.7632 43.3235 14.2312L39.3636 16.6071C39.1371 16.7435 38.9991 16.9865 38.9991 17.2506C38.9991 19.3865 40.1856 21.3064 42.0965 22.2649L42.4129 22.4224C42.6439 22.5363 42.9154 22.5259 43.1344 22.3939L46.4298 20.417C46.2498 21.6109 45.7129 22.7163 44.8654 23.6163Z" fill="white"/>
<path d="M31.6568 32.8455L30.9068 32.0955C30.6143 31.803 30.1388 31.803 29.8463 32.0955L28.7019 33.2399C28.5864 33.3524 28.4094 33.3494 28.2699 33.2099C27.5049 32.4449 27.0415 31.764 26.8089 31.065C26.6259 30.5145 26.3125 30.0075 25.9014 29.598C25.6075 29.3055 25.1334 29.3055 24.841 29.598L22.579 31.8599C21.838 32.5994 20.7371 32.9339 19.4996 32.9999C15.3644 33 12 36.3644 12 40.4997C12 40.7622 12.033 41.0142 12.066 41.2662L12.09 41.4432C12.123 41.6937 12.279 41.9111 12.507 42.0222C12.7365 42.1332 13.002 42.1212 13.221 41.9907L18.0313 39.1048C19.2778 39.7497 20.0923 40.9587 20.2288 42.3371L15.2114 45.3475C14.9954 45.478 14.8574 45.709 14.8484 45.961C14.8379 46.2145 14.9564 46.4545 15.1619 46.6015C16.4429 47.5135 17.9368 47.9964 19.4848 47.9994C19.4893 47.9994 19.4923 47.9994 19.4953 47.9994C21.3567 47.9994 23.2392 47.125 24.6596 45.6025C26.3111 43.831 27.076 42.0761 26.9965 40.2372C26.953 39.2202 27.409 38.1538 28.249 37.3138L31.6568 33.9059C31.9493 33.6135 31.9493 33.138 31.6568 32.8455ZM27.1855 36.2519C26.0501 37.3873 25.4336 38.8633 25.4951 40.3003C25.5566 41.7372 24.9416 43.0961 23.5601 44.5796C22.4231 45.8006 20.9427 46.4996 19.4953 46.4996C19.4923 46.4996 19.4893 46.4996 19.4878 46.4996C18.6523 46.4981 17.8348 46.3196 17.0758 45.9791L21.3852 43.3931C21.6117 43.2567 21.7497 43.0137 21.7497 42.7497C21.7497 40.6137 20.5617 38.6923 18.6523 37.7353L18.3359 37.5779C18.1064 37.4639 17.8349 37.4744 17.6144 37.6063L13.5165 40.0663C13.7385 36.9599 16.3379 34.5 19.5178 34.5C19.5268 34.5 19.5358 34.5 19.5448 34.5C21.1663 34.5 22.6197 33.9389 23.6397 32.9205L25.2807 31.2795C25.3212 31.3636 25.3541 31.4491 25.3842 31.5375C25.6932 32.466 26.2737 33.3344 27.2336 34.2944C27.6131 34.6754 28.1171 34.8539 28.6226 34.8149L27.1855 36.2519Z" fill="white"/>
</g>
<defs>
<linearGradient id="paint0_linear_201_64" x1="2.66447" y1="-23.4246" x2="67.3037" y2="-16.3564" gradientUnits="userSpaceOnUse">
<stop stop-color="#276EA3"/>
<stop offset="0.5" stop-color="#0FB3C5"/>
<stop offset="1" stop-color="#0CC77D"/>
</linearGradient>
<clipPath id="clip0_201_64">
<rect width="36" height="36" fill="white" transform="translate(12 12)"/>
</clipPath>
</defs>
</svg>
