<svg width="60" height="60" viewBox="0 0 60 60" fill="none" xmlns="http://www.w3.org/2000/svg">
<circle cx="30" cy="30" r="30" fill="url(#paint0_linear_201_254)"/>
<g clip-path="url(#clip0_201_254)">
<path d="M31.1859 27.2508L31.432 27.2043C32.4198 27.0179 33.0126 26.2037 33.1441 25.4218C33.3055 24.4612 32.8202 23.6392 31.8599 23.2997L31.8598 23.2997C31.6926 23.2406 31.52 23.178 31.3472 23.1124L31.0246 22.9899V22.6448V19.9989V19.3756L31.6331 19.5106C32.1797 19.6319 32.5134 19.9094 32.5703 19.9594L32.576 19.9644L32.5759 19.9644L31.1859 27.2508ZM31.1859 27.2508L31.6823 27.0859C32.5111 26.8107 32.9828 26.0838 33.0954 25.4137C33.1244 25.2413 33.1629 24.8574 33.0142 24.4437C32.8562 24.0039 32.5031 23.5794 31.8436 23.3463C31.7969 23.3298 31.752 23.3136 31.7054 23.2968L31.6943 23.2928L31.0246 23.0514V23.7633V26.6113V27.2812V27.3044V27.6958V28.3544C31.0246 28.3681 31.0136 28.3791 30.9999 28.3791C30.9862 28.3791 30.9752 28.368 30.9752 28.3545V27.7367V27.2619L30.5011 27.2372C29.9664 27.2094 29.5712 27.1053 28.9361 26.6898L28.663 27.1073L28.9361 26.6898C28.9247 26.6824 28.9215 26.6671 28.929 26.6557L28.929 26.6556C28.9363 26.6445 28.9515 26.641 28.9632 26.6487C29.5161 27.0103 29.8961 27.1495 30.4425 27.1853L30.9752 27.2201V26.6862V23.3492V23.0238L30.6777 22.892C30.2051 22.6825 29.884 22.4945 29.6378 22.3014L31.1859 27.2508ZM32.9482 19.5604C32.917 19.5316 32.3888 19.0561 31.5247 18.933V18.3809C31.5247 18.091 31.2898 17.8561 30.9999 17.8561C30.7101 17.8561 30.4751 18.091 30.4751 18.3809L32.9482 19.5604ZM32.9482 19.5604L32.6092 19.928C32.6191 19.9372 32.6198 19.9527 32.6106 19.9628L31.4542 19.4281M32.9482 19.5604L32.6094 19.9282C32.6094 19.9282 32.6094 19.9282 32.6093 19.9282C32.6038 19.9232 32.1678 19.5298 31.4542 19.4281M31.0246 19.3669V18.933V18.3809C31.0246 18.3672 31.0135 18.3562 30.9999 18.3562C30.9862 18.3562 30.9752 18.3672 30.9752 18.3809V18.9733V19.3603V19.3778V20.059V22.1838V23.0165L30.2401 22.6253C30.0365 22.517 29.8391 22.3966 29.6683 22.2626L29.6682 22.2626C29.2461 21.9316 29.141 21.3684 29.2331 20.8795L31.0246 19.3669ZM31.0246 19.3669L31.4542 19.4281M31.0246 19.3669L31.4542 19.4281M30.8376 19.4072L30.3138 19.5856C29.6362 19.8164 29.3195 20.4211 29.2332 20.8794L30.8376 19.4072ZM30.8376 19.4072L30.5797 19.4624C30.5038 19.4786 30.4286 19.4974 30.3531 19.5202L30.8376 19.4072ZM29.1847 20.8703C29.31 20.2055 29.7654 19.6973 30.353 19.5202L29.1847 20.8703ZM29.6377 22.3014C29.2722 22.0147 29.0698 21.4803 29.1847 20.8703L29.6377 22.3014Z" fill="white" stroke="white" stroke-width="1.00028"/>
<path d="M38.2345 26.3121L38.2348 26.3122C38.2472 26.3174 38.2533 26.3317 38.248 26.3445C37.0379 29.2679 34.2131 31.1557 31.0492 31.1557C26.7552 31.1557 23.261 27.6616 23.261 23.3676C23.261 19.0737 26.7553 15.5795 31.0492 15.5795C35.3431 15.5795 38.8372 19.0735 38.8372 23.3675C38.8372 23.5983 38.827 23.8316 38.8068 24.0606C38.8062 24.0676 38.8034 24.0731 38.7978 24.0778C38.795 24.0802 38.7921 24.0817 38.7897 24.0824C38.7877 24.0831 38.7852 24.0835 38.7814 24.0832L38.7799 24.0831C38.7665 24.0819 38.7565 24.0701 38.7577 24.0564L38.7577 24.0563C38.7777 23.8285 38.7878 23.5969 38.7878 23.3676C38.7878 19.1 35.3167 15.6289 31.0491 15.6289C26.7814 15.6289 23.3103 19.1 23.3103 23.3676C23.3103 27.6352 26.7814 31.1064 31.0491 31.1064C34.1917 31.1064 37.0005 29.2291 38.2025 26.3255L38.2025 26.3255C38.2077 26.3128 38.2221 26.307 38.2345 26.3121Z" fill="white" stroke="white" stroke-width="1.00028"/>
<path d="M31.0492 34.7353C37.3172 34.7353 42.4168 29.6358 42.4168 23.3676C42.4168 17.0995 37.3172 12 31.0492 12C24.7811 12 19.6815 17.0995 19.6815 23.3676C19.6815 29.6358 24.781 34.7353 31.0492 34.7353ZM31.0492 13.0496C36.7385 13.0496 41.3672 17.6783 41.3672 23.3676C41.3672 29.057 36.7385 33.6857 31.0492 33.6857C25.3598 33.6857 20.7312 29.057 20.7312 23.3676C20.7312 17.6783 25.3597 13.0496 31.0492 13.0496Z" fill="white"/>
<path d="M31.0491 14.5091C31.2902 14.5091 31.4857 14.3136 31.4857 14.0725C31.4857 13.8314 31.2902 13.636 31.0491 13.636C30.808 13.636 30.6125 13.8314 30.6125 14.0725C30.6125 14.3136 30.808 14.5091 31.0491 14.5091Z" fill="white"/>
<path d="M31.0491 32.2263C30.808 32.2263 30.6125 32.4217 30.6125 32.6628C30.6125 32.9039 30.808 33.0994 31.0491 33.0994C31.2902 33.0994 31.4857 32.9039 31.4857 32.6628C31.4857 32.4217 31.2902 32.2263 31.0491 32.2263Z" fill="white"/>
<path d="M26.6198 15.6959C26.8286 15.5753 26.9001 15.3084 26.7795 15.0995C26.659 14.8907 26.392 14.8192 26.1832 14.9397C25.9744 15.0603 25.9029 15.3273 26.0234 15.5361C26.144 15.7449 26.411 15.8164 26.6198 15.6959Z" fill="white"/>
<path d="M35.4784 31.0394C35.2695 31.16 35.198 31.4269 35.3186 31.6358C35.4391 31.8446 35.7061 31.9161 35.9149 31.7955C36.1237 31.675 36.1953 31.408 36.0747 31.1992C35.9542 30.9904 35.6872 30.9189 35.4784 31.0394Z" fill="white"/>
<path d="M22.781 19.0981C22.9899 19.2187 23.2568 19.1472 23.3774 18.9383C23.4979 18.7295 23.4264 18.4625 23.2176 18.342C23.0088 18.2214 22.7418 18.293 22.6212 18.5018C22.5007 18.7106 22.5722 18.9776 22.781 19.0981Z" fill="white"/>
<path d="M39.3172 27.6372C39.1084 27.5166 38.8414 27.5881 38.7209 27.797C38.6003 28.0058 38.6718 28.2728 38.8806 28.3933C39.0895 28.5139 39.3564 28.4423 39.477 28.2335C39.5975 28.0247 39.526 27.7577 39.3172 27.6372Z" fill="white"/>
<path d="M21.754 23.8042C21.9951 23.8042 22.1905 23.6087 22.1905 23.3676C22.1905 23.1265 21.9951 22.9311 21.754 22.9311C21.5129 22.9311 21.3174 23.1265 21.3174 23.3676C21.3174 23.6087 21.5129 23.8042 21.754 23.8042Z" fill="white"/>
<path d="M40.3443 23.8042C40.5854 23.8042 40.7808 23.6087 40.7808 23.3676C40.7808 23.1265 40.5854 22.9311 40.3443 22.9311C40.1032 22.9311 39.9077 23.1265 39.9077 23.3676C39.9077 23.6087 40.1032 23.8042 40.3443 23.8042Z" fill="white"/>
<path d="M22.781 27.6372C22.5722 27.7577 22.5007 28.0247 22.6212 28.2335C22.7418 28.4423 23.0088 28.5139 23.2176 28.3933C23.4264 28.2728 23.4979 28.0058 23.3774 27.797C23.2568 27.5881 22.9898 27.5166 22.781 27.6372Z" fill="white"/>
<path d="M39.3172 19.0981C39.526 18.9776 39.5975 18.7106 39.477 18.5018C39.3564 18.293 39.0895 18.2214 38.8806 18.342C38.6718 18.4625 38.6003 18.7295 38.7209 18.9383C38.8414 19.1472 39.1084 19.2187 39.3172 19.0981Z" fill="white"/>
<path d="M26.6198 31.0394C26.4109 30.9189 26.144 30.9904 26.0234 31.1992C25.9029 31.408 25.9744 31.675 26.1832 31.7955C26.392 31.9161 26.659 31.8446 26.7795 31.6358C26.9001 31.4269 26.8286 31.16 26.6198 31.0394Z" fill="white"/>
<path d="M35.4784 15.6959C35.6872 15.8164 35.9542 15.7449 36.0747 15.5361C36.1953 15.3273 36.1237 15.0603 35.9149 14.9397C35.7061 14.8192 35.4391 14.8907 35.3186 15.0995C35.198 15.3084 35.2695 15.5753 35.4784 15.6959Z" fill="white"/>
<path d="M46.0412 41.8592C45.754 41.8677 45.5325 42.1183 45.5325 42.4057V46.0387L37.9306 37.0231C37.6208 36.6554 37.0985 36.5716 36.6889 36.8237L28.6431 41.7772L22.5674 35.5048C22.3659 35.2966 22.0335 35.2913 21.8254 35.493C21.6172 35.6946 21.612 36.0269 21.8136 36.235L27.9373 42.5571C28.2543 42.8843 28.7467 42.946 29.1346 42.7072L37.1761 37.7563L44.8438 46.8501H41.1107C41.0144 46.8501 40.9174 46.8615 40.8266 46.8936C40.5571 46.9888 40.4461 47.1928 40.4421 47.4343C40.4372 47.7295 40.6339 47.9764 40.9228 47.9999C40.9228 47.9999 46.0012 47.9971 46.0149 47.9982C46.2032 48.0134 46.3718 47.9222 46.4754 47.7846C46.5424 47.6954 46.5821 47.5868 46.5821 47.475C46.5821 47.4619 46.5821 42.3836 46.5821 42.3836C46.5821 42.0885 46.3384 41.8502 46.0412 41.8592Z" fill="white"/>
<path d="M38.6623 46.9504H14.4674V28.6509L20.2062 34.5756C20.3091 34.6819 20.446 34.7353 20.5832 34.7353C20.7146 34.7353 20.8463 34.6861 20.9482 34.5875C21.1564 34.3858 21.1616 34.0536 20.96 33.8454L14.4674 27.1424V20.5369C14.4674 20.2471 14.2325 20.0121 13.9425 20.0121C13.6526 20.0121 13.4177 20.247 13.4177 20.5369V47.4753C13.4177 47.7651 13.6526 48.0001 13.9425 48.0001H38.6623C38.9521 48.0001 39.1871 47.7652 39.1871 47.4753C39.1871 47.1853 38.9522 46.9504 38.6623 46.9504Z" fill="white"/>
</g>
<defs>
<linearGradient id="paint0_linear_201_254" x1="2.66447" y1="-23.4246" x2="67.3037" y2="-16.3564" gradientUnits="userSpaceOnUse">
<stop stop-color="#276EA3"/>
<stop offset="0.5" stop-color="#0FB3C5"/>
<stop offset="1" stop-color="#0CC77D"/>
</linearGradient>
<clipPath id="clip0_201_254">
<rect width="36" height="36" fill="white" transform="translate(12 12)"/>
</clipPath>
</defs>
</svg>
