<svg width="20" height="20" viewBox="0 0 20 20" fill="none" xmlns="http://www.w3.org/2000/svg">
<g clip-path="url(#clip0_48_596)">
<path fill-rule="evenodd" clip-rule="evenodd" d="M10.2368 0.936768C7.65508 0.936768 7.33277 0.948647 6.31908 0.993787C5.30698 1.0413 4.61799 1.20048 4.01216 1.43569C3.38731 1.67802 2.85672 2.00351 2.32848 2.53173C1.80026 3.05997 1.47399 3.58977 1.23244 4.2154C0.997237 4.82124 0.837265 5.51023 0.79054 6.52233C0.743024 7.53602 0.733521 7.85833 0.733521 10.4401C0.733521 13.0218 0.7454 13.3441 0.79054 14.3578C0.838057 15.3691 0.997237 16.0589 1.23244 16.6647C1.47478 17.2888 1.80026 17.8202 2.32848 18.3484C2.85672 18.8759 3.38653 19.2029 4.01216 19.4444C4.61878 19.6789 5.30777 19.8396 6.31908 19.8863C7.33277 19.9338 7.65508 19.9433 10.2368 19.9433C12.8185 19.9433 13.1409 19.9314 14.1545 19.8863C15.1659 19.8388 15.8557 19.6789 16.4615 19.4444C17.0856 19.2021 17.6169 18.8759 18.1452 18.3484C18.6726 17.8202 18.9997 17.2911 19.2412 16.6647C19.4756 16.0589 19.6364 15.3691 19.6831 14.3578C19.7306 13.3441 19.7401 13.0218 19.7401 10.4401C19.7401 7.85833 19.7282 7.53602 19.6831 6.52233C19.6356 5.51101 19.4756 4.82045 19.2412 4.2154C18.9988 3.59056 18.6726 3.05997 18.1452 2.53173C17.6169 2.00351 17.0879 1.67723 16.4615 1.43569C15.8557 1.20048 15.1659 1.04051 14.1545 0.993787C13.1409 0.946271 12.8185 0.936768 10.2368 0.936768ZM15.3101 6.50803C15.9388 6.50803 16.4505 5.99723 16.4505 5.36764C16.4505 4.73883 15.938 4.22724 15.3101 4.22803C14.6812 4.22803 14.1696 4.73883 14.1696 5.36764C14.1696 5.99644 14.6804 6.50803 15.3101 6.50803ZM5.3569 10.44C5.3569 7.74583 7.54028 5.56008 10.2368 5.56008C12.931 5.56008 15.1167 7.74346 15.1167 10.44C15.1167 13.1342 12.9334 15.32 10.2368 15.32C7.54265 15.32 5.3569 13.1366 5.3569 10.44ZM10.2368 13.6079C8.48666 13.6079 7.06908 12.1903 7.06908 10.4401C7.06908 8.68992 8.48666 7.27234 10.2368 7.27234C11.987 7.27234 13.4046 8.68992 13.4046 10.4401C13.4046 12.1903 11.987 13.6079 10.2368 13.6079Z" fill="white"/>
</g>
<defs>
<clipPath id="clip0_48_596">
<rect width="19.0066" height="19.0066" fill="white" transform="translate(0.733521 0.936768)"/>
</clipPath>
</defs>
</svg>
