<svg width="20" height="20" viewBox="0 0 20 20" fill="none" xmlns="http://www.w3.org/2000/svg">
<g clip-path="url(#clip0_48_592)">
<path d="M16.273 16.7136H13.6327V12.5786C13.6327 11.5925 13.6153 10.3232 12.2596 10.3232C10.8845 10.3232 10.6741 11.3975 10.6741 12.5068V16.7132H8.03393V8.20998H10.5685V9.37203H10.604C11.1201 8.48959 12.0832 7.96059 13.1047 7.99852C15.7807 7.99852 16.2742 9.75876 16.2742 12.0488L16.273 16.7136ZM5.05489 7.04762C4.21437 7.04762 3.5224 6.356 3.5224 5.51541C3.5224 4.67484 4.21405 3.98314 5.05457 3.98314C5.895 3.98314 6.58656 4.67467 6.58672 5.51509C6.58672 6.35553 5.89524 7.04753 5.05489 7.04762ZM6.37497 16.7136H3.73202V8.20998H6.37497V16.7136ZM17.5892 1.53112H2.40524C1.69248 1.52307 1.09911 2.10269 1.09042 2.81551V18.0636C1.09879 18.777 1.69208 19.3573 2.40524 19.3496H17.5892C18.3041 19.3586 18.8995 18.7784 18.9091 18.0636V2.81447C18.8995 2.10014 18.3033 1.52171 17.5892 1.53112Z" fill="white"/>
</g>
<defs>
<clipPath id="clip0_48_592">
<rect width="19.0066" height="19.0066" fill="white" transform="translate(0.496674 0.936768)"/>
</clipPath>
</defs>
</svg>
