<svg width="20" height="20" viewBox="0 0 20 20" fill="none" xmlns="http://www.w3.org/2000/svg">
<g clip-path="url(#clip0_48_594)">
<path d="M19.2299 4.61116C18.5291 4.91923 17.7807 5.12909 16.9927 5.22492C17.7958 4.74104 18.4134 3.9784 18.7057 3.06846C17.9526 3.50799 17.1179 3.82793 16.2293 4.00612C15.5197 3.24665 14.5084 2.77148 13.3854 2.77148C11.2336 2.77148 9.48904 4.51613 9.48904 6.66546C9.48904 6.97432 9.52468 7.27129 9.58962 7.5556C6.35058 7.40276 3.4798 5.84738 1.55855 3.49611C1.22039 4.06789 1.03112 4.73233 1.03112 5.45616C1.03112 6.81038 1.7201 8.00067 2.76388 8.69995C2.12479 8.67936 1.5237 8.50355 0.999438 8.21212V8.26043C0.999438 10.1492 2.34019 11.7244 4.12444 12.0831C3.79737 12.171 3.45208 12.2185 3.09808 12.2185C2.84941 12.2185 2.61104 12.1948 2.37266 12.1504C2.87238 13.6971 4.30896 14.8248 6.01876 14.8565C4.6883 15.9011 3.00226 16.5236 1.18634 16.5236C0.877479 16.5236 0.569414 16.5053 0.259766 16.4705C1.99332 17.5744 4.03574 18.2199 6.24446 18.2199C13.4147 18.2199 17.3308 12.2835 17.3308 7.14379C17.3308 6.97828 17.3308 6.81118 17.319 6.64487C18.08 6.09922 18.7444 5.40944 19.2671 4.627L19.2299 4.61116Z" fill="white"/>
</g>
<defs>
<clipPath id="clip0_48_594">
<rect width="19.0066" height="19.0066" fill="white" transform="translate(0.259827 0.992676)"/>
</clipPath>
</defs>
</svg>
