<svg width="30" height="25" viewBox="0 0 30 25" fill="none" xmlns="http://www.w3.org/2000/svg">
<path d="M29.3452 3.68348C28.2833 4.15028 27.1492 4.46828 25.9553 4.61348C27.1721 3.88028 28.1079 2.72468 28.5508 1.34587C27.4097 2.01188 26.1449 2.49668 24.7985 2.76668C23.7233 1.61588 22.1908 0.895874 20.4892 0.895874C17.2287 0.895874 14.5852 3.53948 14.5852 6.79628C14.5852 7.26428 14.6392 7.71428 14.7376 8.14508C9.82958 7.91348 5.47958 5.55668 2.56838 1.99388C2.05598 2.86028 1.76918 3.86708 1.76918 4.96388C1.76918 7.01588 2.81318 8.81948 4.39478 9.87908C3.42638 9.84788 2.51558 9.58148 1.72118 9.13988V9.21308C1.72118 12.0751 3.75278 14.4619 6.45638 15.0055C5.96078 15.1387 5.43758 15.2107 4.90118 15.2107C4.52438 15.2107 4.16318 15.1747 3.80198 15.1075C4.55918 17.4511 6.73598 19.1599 9.32678 19.2079C7.31078 20.7907 4.75598 21.7339 2.00438 21.7339C1.53638 21.7339 1.06958 21.7063 0.600382 21.6535C3.22718 23.3263 6.32198 24.3043 9.66878 24.3043C20.5337 24.3043 26.4676 15.3091 26.4676 7.52108C26.4676 7.27028 26.4676 7.01708 26.4497 6.76508C27.6028 5.93828 28.6095 4.89308 29.4015 3.70748L29.3452 3.68348Z" fill="white"/>
</svg>
