<svg width="30" height="20" viewBox="0 0 30 20" fill="none" xmlns="http://www.w3.org/2000/svg">
<path d="M28.5991 2.9653C28.4322 2.39477 28.1138 1.87496 27.6748 1.45611C27.2356 1.03727 26.6906 0.733553 26.0926 0.574324C23.8478 0.000626802 14.8132 0.000626596 14.8132 0.000626596C14.8132 0.000626596 5.80147 -0.0108243 3.53382 0.574324C2.93571 0.733553 2.39078 1.03727 1.95169 1.45611C1.51261 1.87496 1.19421 2.39477 1.02729 2.9653C0.601757 5.15762 0.391967 7.38308 0.400658 9.61264C0.39361 11.8338 0.603393 14.0507 1.02729 16.2349C1.19421 16.8053 1.51261 17.3251 1.95169 17.744C2.39078 18.1629 2.93571 18.4665 3.53382 18.6257C5.77625 19.2006 14.8132 19.2006 14.8132 19.2006C14.8132 19.2006 23.8238 19.2006 26.0926 18.6257C26.6906 18.4665 27.2356 18.1629 27.6748 17.744C28.1138 17.3251 28.4322 16.8053 28.5991 16.2349C29.0142 14.05 29.2151 11.833 29.1994 9.61264C29.2167 7.38388 29.0158 5.15842 28.5991 2.9653ZM11.9297 13.7247V5.48797L19.4494 9.61264L11.9297 13.7247Z" fill="white"/>
</svg>
